<svg xmlns="http://www.w3.org/2000/svg" xmlns:xlink="http://www.w3.org/1999/xlink" width="1920" zoomAndPan="magnify" viewBox="0 0 1440 809.999993" height="1080" preserveAspectRatio="xMidYMid meet" version="1.0"><defs><clipPath id="75e3c9da64"><path d="M 162 10.660156 L 1278 10.660156 L 1278 799.65625 L 162 799.65625 Z M 162 10.660156 " clip-rule="nonzero"/></clipPath><clipPath id="5f1da8a786"><path d="M 162 10.660156 L 1278 10.660156 L 1278 347 L 162 347 Z M 162 10.660156 " clip-rule="nonzero"/></clipPath></defs><path fill="#a5d0e9" d="M 404.789062 51.582031 L 316.113281 51.582031 C 308.226562 51.582031 301.816406 58 301.816406 65.886719 L 301.816406 134.097656 C 301.816406 141.984375 308.226562 148.402344 316.113281 148.402344 L 404.714844 148.402344 C 412.601562 148.402344 419.015625 141.984375 419.015625 134.097656 L 419.015625 65.886719 C 419.089844 58 412.675781 51.582031 404.789062 51.582031 Z M 404.789062 51.582031 " fill-opacity="1" fill-rule="nonzero"/><path fill="#a5d0e9" d="M 1171.605469 51.582031 L 1014.824219 51.582031 C 1006.933594 51.582031 1000.523438 58 1000.523438 65.886719 L 1000.523438 134.097656 C 1000.523438 141.984375 1006.933594 148.402344 1014.824219 148.402344 L 1171.605469 148.402344 C 1179.492188 148.402344 1185.90625 141.984375 1185.90625 134.097656 L 1185.90625 65.886719 C 1185.980469 58 1179.566406 51.582031 1171.605469 51.582031 Z M 1171.605469 51.582031 " fill-opacity="1" fill-rule="nonzero"/><g clip-path="url(#75e3c9da64)"><path fill="#a5d0e9" d="M 1202.195312 119.789062 L 939.5625 119.789062 L 915.535156 51.953125 C 906.761719 27.25 883.320312 10.660156 857.15625 10.660156 L 582.875 10.660156 C 556.707031 10.660156 533.269531 27.25 524.496094 51.953125 L 500.464844 119.789062 L 237.90625 119.789062 C 196.113281 119.789062 162.058594 153.785156 162.058594 195.59375 L 162.058594 723.78125 C 162.058594 765.589844 196.039062 799.585938 237.832031 799.585938 L 1202.121094 799.585938 C 1243.917969 799.585938 1277.898438 765.589844 1277.898438 723.78125 L 1277.898438 195.59375 C 1277.972656 153.785156 1243.988281 119.789062 1202.195312 119.789062 Z M 1202.195312 119.789062 " fill-opacity="1" fill-rule="nonzero"/><path fill="#17477b" d="M 1202.195312 799.65625 L 237.90625 799.65625 C 196.113281 799.65625 162.132812 765.664062 162.132812 723.855469 L 162.132812 195.59375 C 162.132812 153.785156 196.113281 119.789062 237.90625 119.789062 L 500.539062 119.789062 L 524.570312 51.953125 C 533.339844 27.25 556.78125 10.660156 582.949219 10.660156 L 857.15625 10.660156 C 883.320312 10.660156 906.761719 27.25 915.535156 51.953125 L 939.5625 119.789062 L 1202.195312 119.789062 C 1243.988281 119.789062 1277.972656 153.785156 1277.972656 195.59375 L 1277.972656 723.78125 C 1277.972656 765.664062 1243.988281 799.65625 1202.195312 799.65625 Z M 237.90625 148.402344 C 211.886719 148.402344 190.734375 169.5625 190.734375 195.59375 L 190.734375 723.78125 C 190.734375 749.8125 211.886719 770.972656 237.90625 770.972656 L 1202.195312 770.972656 C 1228.214844 770.972656 1249.371094 749.8125 1249.371094 723.78125 L 1249.371094 195.59375 C 1249.371094 169.5625 1228.214844 148.402344 1202.195312 148.402344 L 929.464844 148.402344 C 923.421875 148.402344 917.964844 144.566406 915.976562 138.890625 L 888.554688 61.539062 C 883.835938 48.265625 871.234375 39.34375 857.15625 39.34375 L 582.875 39.34375 C 568.796875 39.34375 556.191406 48.265625 551.472656 61.539062 L 524.128906 138.890625 C 522.136719 144.640625 516.683594 148.402344 510.640625 148.402344 Z M 237.90625 148.402344 " fill-opacity="1" fill-rule="nonzero"/></g><path fill="#fdfff5" d="M 299.085938 620.988281 C 268.644531 620.988281 243.878906 645.765625 243.878906 676.21875 C 243.878906 706.675781 268.644531 731.449219 299.085938 731.449219 C 329.53125 731.449219 354.296875 706.675781 354.296875 676.21875 C 354.296875 645.765625 329.53125 620.988281 299.085938 620.988281 Z M 299.085938 620.988281 " fill-opacity="1" fill-rule="nonzero"/><g clip-path="url(#5f1da8a786)"><path fill="#fdfff5" d="M 1202.195312 119.789062 L 939.5625 119.789062 L 915.535156 51.953125 C 906.761719 27.25 883.320312 10.660156 857.15625 10.660156 L 582.875 10.660156 C 556.707031 10.660156 533.269531 27.25 524.496094 51.953125 L 500.464844 119.789062 L 237.90625 119.789062 C 196.113281 119.789062 162.058594 153.785156 162.058594 195.59375 L 162.058594 331.863281 C 162.058594 339.753906 168.472656 346.167969 176.359375 346.167969 L 1263.597656 346.167969 C 1271.484375 346.167969 1277.898438 339.753906 1277.898438 331.863281 L 1277.898438 195.59375 C 1277.972656 153.785156 1243.988281 119.789062 1202.195312 119.789062 Z M 1202.195312 119.789062 " fill-opacity="1" fill-rule="nonzero"/><path fill="#17477b" d="M 1263.671875 346.167969 L 176.433594 346.167969 C 168.546875 346.167969 162.132812 339.753906 162.132812 331.863281 L 162.132812 195.59375 C 162.132812 153.785156 196.113281 119.789062 237.90625 119.789062 L 500.539062 119.789062 L 524.570312 51.953125 C 533.339844 27.25 556.78125 10.660156 582.949219 10.660156 L 857.15625 10.660156 C 883.320312 10.660156 906.761719 27.25 915.535156 51.953125 L 939.5625 119.789062 L 1202.195312 119.789062 C 1243.988281 119.789062 1277.972656 153.785156 1277.972656 195.59375 L 1277.972656 331.863281 C 1277.972656 339.753906 1271.558594 346.167969 1263.671875 346.167969 Z M 190.734375 317.558594 L 1249.371094 317.558594 L 1249.371094 195.59375 C 1249.371094 169.5625 1228.214844 148.402344 1202.195312 148.402344 L 929.464844 148.402344 C 923.421875 148.402344 917.964844 144.566406 915.976562 138.890625 L 888.554688 61.539062 C 883.835938 48.265625 871.234375 39.34375 857.15625 39.34375 L 582.875 39.34375 C 568.796875 39.34375 556.191406 48.265625 551.472656 61.539062 L 524.128906 138.890625 C 522.136719 144.640625 516.683594 148.402344 510.640625 148.402344 L 237.90625 148.402344 C 211.886719 148.402344 190.734375 169.5625 190.734375 195.59375 Z M 190.734375 317.558594 " fill-opacity="1" fill-rule="nonzero"/></g><path fill="#17477b" d="M 404.789062 148.402344 L 316.113281 148.402344 C 308.226562 148.402344 301.816406 141.984375 301.816406 134.097656 L 301.816406 65.886719 C 301.816406 58 308.226562 51.582031 316.113281 51.582031 L 404.714844 51.582031 C 412.601562 51.582031 419.015625 58 419.015625 65.886719 L 419.015625 134.097656 C 419.089844 141.984375 412.675781 148.402344 404.789062 148.402344 Z M 330.414062 119.789062 L 390.414062 119.789062 L 390.414062 80.195312 L 330.414062 80.195312 Z M 330.414062 119.789062 " fill-opacity="1" fill-rule="nonzero"/><path fill="#17477b" d="M 1171.605469 148.402344 L 1014.824219 148.402344 C 1006.933594 148.402344 1000.523438 141.984375 1000.523438 134.097656 L 1000.523438 65.886719 C 1000.523438 58 1006.933594 51.582031 1014.824219 51.582031 L 1171.605469 51.582031 C 1179.492188 51.582031 1185.90625 58 1185.90625 65.886719 L 1185.90625 134.097656 C 1185.980469 141.984375 1179.566406 148.402344 1171.605469 148.402344 Z M 1029.195312 119.789062 L 1157.378906 119.789062 L 1157.378906 80.195312 L 1029.195312 80.195312 Z M 1029.195312 119.789062 " fill-opacity="1" fill-rule="nonzero"/><path fill="#17477b" d="M 299.085938 731.449219 C 268.644531 731.449219 243.878906 706.675781 243.878906 676.21875 C 243.878906 645.765625 268.644531 620.988281 299.085938 620.988281 C 329.53125 620.988281 354.296875 645.765625 354.296875 676.21875 C 354.296875 706.675781 329.53125 731.449219 299.085938 731.449219 Z M 299.085938 649.601562 C 284.417969 649.601562 272.476562 661.546875 272.476562 676.21875 C 272.476562 690.894531 284.417969 702.839844 299.085938 702.839844 C 313.757812 702.839844 325.699219 690.894531 325.699219 676.21875 C 325.699219 661.546875 313.757812 649.601562 299.085938 649.601562 Z M 299.085938 649.601562 " fill-opacity="1" fill-rule="nonzero"/><path fill="#a5d0e9" d="M 720.050781 150.464844 C 560.910156 150.464844 431.398438 280.023438 431.398438 439.226562 C 431.398438 598.425781 560.835938 728.058594 720.050781 728.058594 C 879.269531 728.058594 1008.703125 598.5 1008.703125 439.300781 C 1008.703125 280.097656 879.195312 150.464844 720.050781 150.464844 Z M 720.050781 150.464844 " fill-opacity="1" fill-rule="nonzero"/><path fill="#fdfff5" d="M 720.050781 224.71875 C 601.820312 224.71875 505.625 320.949219 505.625 439.226562 C 505.625 557.5 601.820312 653.730469 720.050781 653.730469 C 838.285156 653.730469 934.476562 557.5 934.476562 439.226562 C 934.476562 320.949219 838.285156 224.71875 720.050781 224.71875 Z M 720.050781 224.71875 " fill-opacity="1" fill-rule="nonzero"/><path fill="#17477b" d="M 720.050781 728.058594 C 560.910156 728.058594 431.398438 598.5 431.398438 439.300781 C 431.398438 280.097656 560.835938 150.464844 720.050781 150.464844 C 879.269531 150.464844 1008.703125 280.023438 1008.703125 439.226562 C 1008.703125 598.425781 879.195312 728.058594 720.050781 728.058594 Z M 720.050781 179.078125 C 576.683594 179.078125 460 295.804688 460 439.226562 C 460 582.644531 576.683594 699.375 720.050781 699.375 C 863.417969 699.375 980.105469 582.644531 980.105469 439.226562 C 980.105469 295.804688 863.417969 179.078125 720.050781 179.078125 Z M 720.050781 179.078125 " fill-opacity="1" fill-rule="nonzero"/><path fill="#17477b" d="M 720.050781 653.804688 C 601.820312 653.804688 505.625 557.574219 505.625 439.300781 C 505.625 321.023438 601.820312 224.71875 720.050781 224.71875 C 838.285156 224.71875 934.476562 320.949219 934.476562 439.226562 C 934.476562 557.5 838.285156 653.804688 720.050781 653.804688 Z M 720.050781 253.40625 C 617.59375 253.40625 534.226562 336.804688 534.226562 439.300781 C 534.226562 541.796875 617.59375 625.195312 720.050781 625.195312 C 822.511719 625.195312 905.878906 541.796875 905.878906 439.300781 C 905.878906 336.804688 822.511719 253.40625 720.050781 253.40625 Z M 720.050781 253.40625 " fill-opacity="1" fill-rule="nonzero"/></svg>